<svg xmlns="http://www.w3.org/2000/svg" viewBox="0 0 32 32">
  <path
    d="M13.28 20.847c-2.102-1.562-3.448-4.037-3.448-6.827 0-2.258 0.882-4.31 2.321-5.83l-0.004 0.004 0.025-0.025 5.499-5.608c1.518-1.548 3.632-2.508 5.969-2.508 4.616 0 8.358 3.742 8.358 8.358 0 2.278-0.912 4.343-2.39 5.851l0.001-0.001-4.14 4.224c0.009-0.181 0.015-0.392 0.015-0.605 0-1.313-0.203-2.578-0.578-3.766l0.024 0.088 2.438-2.503c0.876-0.895 1.417-2.121 1.417-3.473 0-1.388-0.569-2.643-1.487-3.544l-0.001-0.001c-0.891-0.888-2.12-1.436-3.477-1.436-1.377 0-2.622 0.565-3.516 1.475l-0.001 0.001-4.895 4.983c-0.851 0.764-1.554 1.672-2.074 2.69l-0.024 0.052-0.195 0.617c-0.082 0.342-0.129 0.735-0.129 1.139 0 0.839 0.203 1.63 0.562 2.328l-0.013-0.029 0.403 0.629c0.378 0.505 0.827 0.932 1.338 1.274l0.020 0.012c-0.615 0.912-1.279 1.707-2.016 2.429l-0.003 0.003z">
  </path>
  <path
    d="M8.301 31.948c-0.009 0-0.021 0-0.032 0-2.266 0-4.321-0.908-5.819-2.381l0.001 0.001c-1.515-1.534-2.451-3.643-2.451-5.971 0-2.301 0.915-4.389 2.401-5.919l-0.002 0.002 4.081-4.167c-0.007 0.155-0.010 0.336-0.010 0.519 0 1.34 0.201 2.633 0.574 3.85l-0.024-0.093-2.444 2.518c-0.851 0.89-1.375 2.099-1.375 3.43 0 2.743 2.223 4.966 4.966 4.966 1.369 0 2.608-0.554 3.507-1.45l-0 0c0.42-0.42 1.085-1.106 1.794-1.834l0.078-0.078c0.871-0.89 1.781-1.813 2.274-2.321l0.969-0.988c0.769-0.836 1.429-1.79 1.945-2.829l0.032-0.071h0.019l0.031-0.162 0.013-0.084c0.025-0.096 0.040-0.21 0.059-0.3 0.049-0.256 0.077-0.551 0.077-0.852 0-0.846-0.222-1.641-0.61-2.329l0.012 0.024c-0.059-0.114-0.118-0.209-0.182-0.3l0.006 0.009-0.176-0.298-0.019 0.013c-0.385-0.509-0.846-0.937-1.37-1.274l-0.021-0.013c0.534-0.948 1.214-1.748 2.020-2.399l0.016-0.012c1.587 1.132 2.747 2.772 3.25 4.679l0.013 0.058 0.046 0.195c0.135 0.569 0.213 1.222 0.213 1.894 0 1.382-0.328 2.686-0.911 3.841l0.022-0.049-0.040 0.019-0.105 0.248c-1.535 2.049-3.175 3.856-4.968 5.498l-0.029 0.027c-0.806 0.799-1.494 1.488-1.859 1.888-1.508 1.536-3.606 2.488-5.927 2.488-0.014 0-0.028-0-0.042-0h0.002z">
  </path>
</svg>