<svg xmlns="http://www.w3.org/2000/svg" viewBox="0 0 32 32">
  <path d="M3.165 7.84c-0.583 0-1.055-0.472-1.055-1.055v0c0-0.583 0.472-1.055 1.055-1.055v0l25.67-0.081c0.583 0 1.055 0.472 1.055 1.055v0c0 0.583-0.472 1.055-1.055 1.055v0l-25.67 0.081z"></path>
  <path d="M9.384 2.191c0 0 0 0-0 0-0.58 0-1.051-0.468-1.055-1.048v-0c0-0.583 0.472-1.055 1.055-1.055v0l13.234-0.088c0.583 0 1.055 0.472 1.055 1.055v0c0 0.583-0.472 1.055-1.055 1.055v0l-13.234 0.081z"></path>
  <path d="M12.633 26.873c-0.583 0-1.055-0.472-1.055-1.055v0l-0.081-13.822c0-0.583 0.472-1.055 1.055-1.055v0c0.583 0 1.055 0.472 1.055 1.055v0l0.081 13.816c0 0.583-0.472 1.055-1.055 1.055v0z"></path>
  <path d="M19.458 26.873c-0.583 0-1.055-0.472-1.055-1.055v0l-0.081-13.822c0-0.583 0.472-1.055 1.055-1.055v0c0.583 0 1.055 0.472 1.055 1.055v0l0.081 13.816c0 0.583-0.472 1.055-1.055 1.055v0z"></path>
  <path d="M22.884 32h-13.758c-2.112-0.002-3.824-1.714-3.826-3.826v-21.47h2.11v21.472c0.001 0.947 0.769 1.715 1.716 1.716h13.758c0.947-0.001 1.715-0.769 1.716-1.716v-21.472h2.11v21.472c-0.003 2.111-1.714 3.822-3.826 3.824h-0z"></path>
</svg>